<?xml version="1.0" ?><svg id="Layer_1" style="enable-background:new 0 0 128 128;" version="1.1" viewBox="0 0 128 128" xml:space="preserve" xmlns="http://www.w3.org/2000/svg" xmlns:xlink="http://www.w3.org/1999/xlink"><style type="text/css">
	.st0{fill:#F0E402;}
	.st1{fill:#444B54;}
	.st2{fill:#EA551B;}
	.st3{fill:#FF392D;}
	.st4{fill:#FFFFFF;}
	.st5{fill:#57906F;}
	.st6{fill:#FF9217;}
	.st7{fill:#FFFAF0;}
	.st8{fill:#FF4F40;}
	.st9{fill:#F3E9CD;}
	.st10{fill:#F75342;}
	.st11{fill:none;stroke:#444B54;stroke-width:6;stroke-linecap:round;stroke-linejoin:round;stroke-miterlimit:10;}
	.st12{fill:#FFFAEE;}
	.st13{fill:#FFCE94;}
	.st14{fill:#BC9384;}
	.st15{fill:#F5999A;}
	.st16{fill:#C9C9C9;}
	.st17{fill:#95CDEE;}
	.st18{fill:#006E9F;}
	.st19{fill:#C92C28;}
	.st20{fill:#75FA61;}
</style><g><path class="st0" d="M24.9,127c-1.8,0-3.3-1.6-3-3.4c1.6-9.4,9.8-16.6,19.7-16.6s18.1,7.2,19.7,16.6c0.3,1.8-1.1,3.4-3,3.4H24.9z"/><path class="st1" d="M27.3,101.4c-1.1,0-2.2-0.6-2.7-1.7l-8.9-18.4c-0.7-1.5-0.1-3.3,1.4-4c1.5-0.7,3.3-0.1,4,1.4L30,97   c0.7,1.5,0.1,3.3-1.4,4C28.2,101.3,27.8,101.4,27.3,101.4z"/><path class="st1" d="M98.4,59.6l-23.8-6.8l24.1-36.4c0.5-0.8,0.6-1.8,0.3-2.8s-1.1-1.6-2.1-1.8L57.3,2.5c-0.5-0.1-1.1-0.1-1.6,0.1   l-21,7c-1.3,0.4-2.1,1.6-2,3c0.1,1.3,1,2.5,2.3,2.8l13.9,3.4l14.3,43.8l-17.5,54.7l49.7-52.2l1.5,0.4c1.6,0.5,3.3-0.5,3.7-2.1   C100.9,61.7,100,60,98.4,59.6z"/><polygon class="st17" points="12.6,61.4 37.1,23.2 78.3,22.8 58.9,56.6 92.6,67.5 39.5,123.6 52.4,75.6  "/><polygon class="st4" points="67,42.7 78.3,22.8 35.6,12.4 12.6,61.4 25.2,65.9 40.7,36.3  "/><line class="st1" x1="97.6" x2="39.5" y1="62.5" y2="123.6"/><path class="st1" d="M95.4,60.4l-50,52.6l9.8-36.6c0.4-1.5-0.4-3.1-1.9-3.6L16.7,59.7L30,31.4c0.7-1.5,0.1-3.3-1.4-4   c-1.5-0.7-3.3-0.1-4,1.4L9.9,60.2c-0.4,0.8-0.4,1.6-0.1,2.4c0.3,0.8,1,1.4,1.8,1.7l37.1,13.3l-12.1,45.3c-0.4,1.6,0.5,3.2,2.1,3.7   c0.3,0.1,0.5,0.1,0.8,0.1c0.8,0,1.6-0.3,2.2-0.9l58.1-61.1C100.9,63.3,96.6,59.2,95.4,60.4z"/><path class="st1" d="M91.7,70.3L57.9,59.5c-0.9-0.3-1.6-0.9-1.9-1.8c-0.3-0.8-0.3-1.8,0.2-2.6l17.4-30.4l-38.7-9.4   c-1.6-0.4-0.2-6.2,1.4-5.8L79,19.8c0.9,0.2,1.7,0.9,2,1.7s0.3,1.9-0.2,2.7L63.3,54.9l30.2,9.7C95.1,65.1,92,70.4,91.7,70.3z"/><path class="st1" d="M72.6,112.8c-1.2,0-2.3-0.7-2.8-1.8c-0.6-1.5,0.1-3.3,1.6-3.9l25.3-10.6c1.5-0.6,3.3,0.1,3.9,1.6   s-0.1,3.3-1.6,3.9l-25.3,10.6C73.4,112.7,73,112.8,72.6,112.8z"/><path class="st1" d="M103.6,127c-0.2,0-0.4,0-0.6-0.1s-0.4-0.1-0.6-0.2c-0.2-0.1-0.4-0.2-0.5-0.3c-0.2-0.1-0.3-0.2-0.4-0.4   c-0.6-0.6-0.9-1.3-0.9-2.1c0-0.2,0-0.4,0.1-0.6c0-0.2,0.1-0.4,0.2-0.6c0.1-0.2,0.2-0.3,0.3-0.5c0.1-0.2,0.2-0.3,0.4-0.5   c0.1-0.1,0.3-0.3,0.4-0.4c0.2-0.1,0.3-0.2,0.5-0.3c0.2-0.1,0.4-0.1,0.6-0.2c0.4-0.1,0.8-0.1,1.2,0c0.2,0,0.4,0.1,0.6,0.2   c0.2,0.1,0.3,0.2,0.5,0.3c0.2,0.1,0.3,0.2,0.5,0.4c0.1,0.1,0.3,0.3,0.4,0.5c0.1,0.2,0.2,0.3,0.3,0.5c0.1,0.2,0.1,0.4,0.2,0.6   c0,0.2,0.1,0.4,0.1,0.6c0,0.8-0.3,1.6-0.9,2.1c-0.1,0.1-0.3,0.3-0.5,0.4c-0.2,0.1-0.3,0.2-0.5,0.3c-0.2,0.1-0.4,0.1-0.6,0.2   S103.8,127,103.6,127z"/><path class="st1" d="M88.5,127H75.6c-1.7,0-3-1.3-3-3s1.3-3,3-3h12.9c1.7,0,3,1.3,3,3S90.2,127,88.5,127z"/><path class="st1" d="M8.4,127c-0.8,0-1.6-0.3-2.1-0.9c-0.1-0.1-0.3-0.3-0.4-0.4c-0.1-0.2-0.2-0.3-0.3-0.5c-0.1-0.2-0.1-0.4-0.2-0.6   c0-0.2-0.1-0.4-0.1-0.6c0-0.8,0.3-1.6,0.9-2.1c1.1-1.1,3.1-1.1,4.2,0c0.6,0.6,0.9,1.3,0.9,2.1c0,0.2,0,0.4-0.1,0.6   c0,0.2-0.1,0.4-0.2,0.6c-0.1,0.2-0.2,0.4-0.3,0.5c-0.1,0.2-0.2,0.3-0.4,0.4C10,126.7,9.2,127,8.4,127z"/><path class="st1" d="M15,111.7c-0.5,0-1.1-0.1-1.6-0.4l-6.5-4c-1.4-0.9-1.9-2.7-1-4.1c0.9-1.4,2.7-1.9,4.1-1l6.5,4   c1.4,0.9,1.9,2.7,1,4.1C17,111.1,16,111.7,15,111.7z"/></g></svg>